<svg width="48.000000" height="48.000000" viewBox="0 0 48 48" fill="none">
	<rect id="24 / Discount" rx="0.000000" width="47.000000" height="47.000000" transform="translate(0.500000 0.500000)" fill="#FFFFFF" fill-opacity="0"/>
	<g opacity="0.000000">
		<rect id="Rectangle 18208" width="48.000000" height="48.000000" fill="#C4C4C4" fill-opacity="1.000000"/>
	</g>
	<path id="%" d="M12.49 36.91L15.95 39L35.54 11.48L32.24 9L12.49 36.91ZM8 17.14C8 21.31 11.18 24.24 15.37 24.24C19.56 24.24 22.71 21.31 22.71 17.14C22.71 12.93 19.56 10 15.37 10C11.18 10 8 12.93 8 17.14ZM12.34 17.14C12.34 15.17 13.76 13.89 15.37 13.89C16.98 13.89 18.37 15.17 18.37 17.14C18.37 19.14 17.02 20.43 15.37 20.43C13.8 20.43 12.34 19.14 12.34 17.14ZM25.28 31.21C25.28 35.39 28.47 38.35 32.66 38.35C36.81 38.35 40 35.39 40 31.21C40 27 36.81 24.12 32.66 24.12C28.47 24.12 25.28 27 25.28 31.21ZM29.62 31.21C29.62 29.21 31.04 27.93 32.66 27.93C34.23 27.93 35.65 29.21 35.65 31.21C35.65 33.18 34.27 34.46 32.66 34.46C31.08 34.46 29.62 33.18 29.62 31.21Z" fill="#FB8500" fill-opacity="1.000000" fill-rule="nonzero"/>
</svg>
